# Blender 3.3.1
# www.blender.org
mtllib A2-PAR.mtl
o Parede_básica_Genérico_-_200_mm_[288866]
v 0.000000 30.000000 -0.000000
v 0.200000 30.000000 0.000000
v 15.000000 30.000000 -0.000000
v 15.200001 30.000000 0.000000
v 30.000000 30.000000 0.000000
v 30.200001 30.000000 -0.000000
v 30.200001 30.000000 3.000000
v 30.000000 30.000000 3.000000
v 15.200001 30.000000 3.000000
v 15.000000 30.000000 3.000000
v 0.200000 30.000000 3.000000
v 0.000000 30.000000 3.000000
v 0.000000 30.200001 0.000000
v 0.000000 30.200001 3.000000
v 30.200001 30.200001 3.000000
v 30.200001 30.200001 0.000000
vn -0.0000 -1.0000 -0.0000
vn -0.0000 1.0000 -0.0000
vn -0.0000 -0.0000 -1.0000
vn -0.0000 -0.0000 1.0000
vn 1.0000 -0.0000 -0.0000
vn -1.0000 -0.0000 -0.0000
vt -0.328084 -0.000000
vt -0.328084 0.328084
vt -98.097115 0.000000
vt 0.328084 0.000000
vt 0.328084 0.328084
vt 48.884514 -0.000000
vt 48.884514 0.328084
vt 49.540684 0.000000
vt 49.540684 0.328084
vt 98.097115 0.000000
vt 98.097115 0.328084
vt 98.753281 -0.000000
vt 98.753281 0.328084
vt -0.328084 0.000000
vt 98.753281 9.842520
vt 98.753281 -0.328084
vt -0.328084 9.842520
vt 98.097115 9.842520
vt 98.097115 -0.328084
vt 49.540684 9.842520
vt 49.540684 -0.328084
vt 48.884514 9.842520
vt 48.884514 -0.328084
vt 0.328084 9.842520
vt 0.328082 -0.328084
vt -0.328084 9.842520
vt -0.328084 -0.328084
vt -98.097115 9.842520
vt 0.328084 0.000000
vt -0.328084 -0.328084
vt -98.753281 0.000000
vt 0.328084 9.842520
vt -0.328084 0.328084
vt -98.753281 9.842520
vt -98.753281 9.842520
vt 98.753281 0.328084
vt 0.328084 9.842520
vt -98.753281 0.000000
vt 98.753281 -0.328084
vt 0.328084 0.000000
s 1
f 11/24/1 1/1/1 2/4/1
f 10/22/1 2/4/1 3/6/1
f 1/1/1 11/24/1 12/26/1
f 11/24/1 2/4/1 10/22/1
f 3/6/1 9/20/1 10/22/1
f 9/20/1 4/8/1 5/10/1
f 8/18/1 5/10/1 6/12/1
f 5/10/1 8/18/1 9/20/1
f 8/18/1 6/12/1 7/15/1
f 4/8/1 9/20/1 3/6/1
f 15/35/2 16/38/2 13/29/2
f 13/29/2 14/32/2 15/35/2
f 2/5/3 1/2/3 13/30/3
f 6/13/3 5/11/3 16/39/3
f 3/7/3 13/30/3 16/39/3
f 13/30/3 3/7/3 2/5/3
f 4/9/3 16/39/3 5/11/3
f 16/39/3 4/9/3 3/7/3
f 8/19/4 7/16/4 15/36/4
f 12/27/4 11/25/4 14/33/4
f 9/21/4 15/36/4 14/33/4
f 15/36/4 9/21/4 8/19/4
f 10/23/4 14/33/4 11/25/4
f 14/33/4 10/23/4 9/21/4
f 7/17/5 6/14/5 16/40/5
f 16/40/5 15/37/5 7/17/5
f 14/34/6 13/31/6 1/3/6
f 1/3/6 12/28/6 14/34/6
o Parede_básica_Genérico_-_200_mm_[288969]
v 30.000000 30.000000 0.000000
v 30.000000 0.200000 0.000000
v 30.000000 -0.000000 0.000000
v 30.000000 -0.000000 3.000000
v 30.000000 0.200000 3.000000
v 30.000000 30.000000 3.000000
v 30.200001 30.000000 0.000000
v 30.200001 30.000000 3.000000
v 30.200001 -0.000000 3.000000
v 30.200001 -0.000000 0.000000
vn -1.0000 -0.0000 -0.0000
vn 1.0000 -0.0000 -0.0000
vn -0.0000 -0.0000 -1.0000
vn -0.0000 -0.0000 1.0000
vn -0.0000 1.0000 -0.0000
vn -0.0000 -1.0000 -0.0000
vt 0.328084 0.328084
vt 0.328082 0.000000
vt 98.097115 0.000000
vt 98.097115 0.328084
vt 98.753281 0.000000
vt 98.753281 0.328084
vt -0.328084 0.000000
vt 98.753281 9.842520
vt 98.753281 -0.328084
vt -0.328084 9.842520
vt 98.097115 9.842520
vt 98.097115 -0.328084
vt 0.328082 -0.328084
vt 0.328082 9.842520
vt 0.328084 -0.328084
vt -0.328084 0.000000
vt 0.328082 0.328084
vt -0.328084 9.842520
vt -98.753281 9.842520
vt 98.753281 0.328084
vt 0.328084 9.842520
vt -98.753281 0.000000
vt 98.753281 -0.328084
vt 0.328084 0.000000
s 1
f 22/54/7 17/42/7 18/43/7
f 22/54/7 18/43/7 21/51/7
f 21/51/7 19/45/7 20/48/7
f 19/45/7 21/51/7 18/43/7
f 25/59/8 26/62/8 23/56/8
f 23/56/8 24/58/8 25/59/8
f 18/44/9 23/55/9 26/63/9
f 23/55/9 18/44/9 17/41/9
f 18/44/9 26/63/9 19/46/9
f 21/52/10 25/60/10 24/57/10
f 25/60/10 21/52/10 20/49/10
f 21/52/10 24/57/10 22/53/10
f 23/56/11 17/42/11 22/54/11
f 22/54/11 24/58/11 23/56/11
f 20/50/12 19/47/12 26/64/12
f 26/64/12 25/61/12 20/50/12
o Parede_básica_Genérico_-_200_mm_[289080]
v 30.000000 0.200000 0.000000
v 15.200001 0.200000 -0.000000
v 15.000000 0.200000 -0.000000
v 0.200000 0.200000 0.000000
v 0.000000 0.200000 0.000000
v 0.000000 0.200000 3.000000
v 0.200000 0.200000 3.000000
v 15.000000 0.200000 3.000000
v 15.200001 0.200000 3.000000
v 30.000000 0.200000 3.000000
v 30.000000 -0.000000 0.000000
v 30.000000 -0.000000 3.000000
v 0.000000 -0.000000 3.000000
v 0.000000 -0.000000 0.000000
vn -0.0000 1.0000 -0.0000
vn -0.0000 -1.0000 -0.0000
vn -0.0000 -0.0000 -1.0000
vn -0.0000 -0.0000 1.0000
vn 1.0000 -0.0000 -0.0000
vn -1.0000 -0.0000 -0.0000
vt 0.328084 0.328084
vt 0.328082 0.000000
vt 48.884514 -0.000000
vt 48.884514 0.328084
vt 49.540684 -0.000000
vt 49.540684 0.328084
vt 98.097115 0.000000
vt 98.097115 0.328084
vt 98.753281 0.000000
vt 98.753281 0.328084
vt -0.328084 0.000000
vt 98.753281 9.842520
vt 98.753281 -0.328084
vt -0.328084 9.842520
vt 98.097115 9.842520
vt 98.097115 -0.328084
vt 49.540684 9.842520
vt 49.540684 -0.328084
vt 48.884514 9.842520
vt 48.884514 -0.328084
vt 0.328082 -0.328084
vt 0.328082 9.842520
vt 0.328084 -0.328084
vt -0.328084 0.000000
vt 0.328082 0.328084
vt -0.328084 9.842520
vt -98.753281 9.842520
vt 98.753281 0.328084
vt 0.328084 9.842520
vt -98.753281 0.000000
vt 98.753281 -0.328084
vt 0.328084 0.000000
s 1
f 27/66/13 28/67/13 35/83/13
f 27/66/13 35/83/13 36/86/13
f 35/83/13 28/67/13 29/69/13
f 35/83/13 29/69/13 34/81/13
f 30/71/13 31/73/13 33/79/13
f 33/79/13 34/81/13 29/69/13
f 33/79/13 31/73/13 32/76/13
f 33/79/13 29/69/13 30/71/13
f 39/91/14 40/94/14 37/88/14
f 37/88/14 38/90/14 39/91/14
f 31/74/15 30/72/15 40/95/15
f 28/68/15 37/87/15 29/70/15
f 37/87/15 28/68/15 27/65/15
f 29/70/15 40/95/15 30/72/15
f 40/95/15 29/70/15 37/87/15
f 33/80/16 32/77/16 39/92/16
f 34/82/16 39/92/16 38/89/16
f 39/92/16 34/82/16 33/80/16
f 35/84/16 38/89/16 36/85/16
f 38/89/16 35/84/16 34/82/16
f 37/88/17 27/66/17 36/86/17
f 36/86/17 38/90/17 37/88/17
f 32/78/18 31/75/18 40/96/18
f 40/96/18 39/93/18 32/78/18
o Parede_básica_Genérico_-_200_mm_[289137]
v 0.200000 0.200000 0.000000
v 0.200000 30.000000 0.000000
v 0.200000 30.000000 3.000000
v 0.200000 0.200000 3.000000
v -0.000000 0.200000 0.000000
v -0.000000 0.200000 3.000000
v 0.000000 30.000000 3.000000
v 0.000000 30.000000 0.000000
vn 1.0000 -0.0000 -0.0000
vn -1.0000 -0.0000 -0.0000
vn -0.0000 -0.0000 -1.0000
vn -0.0000 -0.0000 1.0000
vn -0.0000 1.0000 -0.0000
vn -0.0000 -1.0000 -0.0000
vt 0.328084 0.328084
vt 0.328082 0.000000
vt 98.097115 0.000000
vt 98.097115 0.328084
vt -0.328084 0.000000
vt 98.097115 9.842520
vt 98.097115 -0.328084
vt -0.328084 9.842520
vt 0.328082 -0.328084
vt 0.328082 9.842520
vt 0.328084 -0.328084
vt -0.328084 0.000000
vt 0.328082 0.328084
vt -0.328084 9.842520
vt -98.097115 9.842520
vt 98.097115 0.328084
vt 0.328084 9.842520
vt -98.097115 0.000000
vt 98.097115 -0.328084
vt 0.328084 0.000000
s 1
f 44/106/19 41/98/19 43/102/19
f 42/99/19 43/102/19 41/98/19
f 47/111/20 48/114/20 45/108/20
f 45/108/20 46/110/20 47/111/20
f 42/100/21 41/97/21 45/107/21
f 45/107/21 48/115/21 42/100/21
f 44/105/22 43/103/22 46/109/22
f 47/112/22 46/109/22 43/103/22
f 42/101/23 48/116/23 47/113/23
f 47/113/23 43/104/23 42/101/23
f 45/108/24 41/98/24 44/106/24
f 44/106/24 46/110/24 45/108/24
o Parede_básica_Genérico_-_200_mm_[289322]
v 15.000000 30.000000 0.000000
v 15.000000 0.200000 0.000000
v 15.000000 0.200000 3.000000
v 15.000000 30.000000 3.000000
v 15.200001 30.000000 0.000000
v 15.200001 30.000000 3.000000
v 15.200001 0.200000 3.000000
v 15.200001 0.200000 0.000000
vn -1.0000 -0.0000 -0.0000
vn 1.0000 -0.0000 -0.0000
vn -0.0000 -0.0000 -1.0000
vn -0.0000 -0.0000 1.0000
vn -0.0000 1.0000 -0.0000
vn -0.0000 -1.0000 -0.0000
vt 0.328084 0.328084
vt 0.328085 0.000000
vt 98.097115 0.000000
vt 98.097115 0.328084
vt -0.328085 0.000000
vt 98.097115 9.842520
vt 98.097115 -0.328084
vt -0.328085 9.842520
vt 0.328082 -0.328084
vt 0.328085 9.842520
vt 0.328084 -0.328084
vt -0.328085 0.000000
vt 0.328082 0.328084
vt -0.328085 9.842520
vt -98.097115 9.842520
vt 98.097115 0.328084
vt 0.328085 9.842520
vt -98.097115 0.000000
vt 98.097115 -0.328084
vt 0.328085 0.000000
s 1
f 52/126/25 49/118/25 51/122/25
f 50/119/25 51/122/25 49/118/25
f 55/131/26 56/134/26 54/130/26
f 53/128/26 54/130/26 56/134/26
f 50/120/27 49/117/27 56/135/27
f 53/127/27 56/135/27 49/117/27
f 52/125/28 51/123/28 54/129/28
f 55/132/28 54/129/28 51/123/28
f 53/128/29 49/118/29 52/126/29
f 52/126/29 54/130/29 53/128/29
f 50/121/30 56/136/30 55/133/30
f 55/133/30 51/124/30 50/121/30
