# Blender 3.3.1
# www.blender.org
mtllib A2-TEL.mtl
o Forro_composto_Simples_[291107]
v 0.200000 30.000000 1.845000
v 0.200000 0.200000 1.845000
v 15.000000 0.200000 1.845000
v 15.000000 30.000000 1.845000
v 0.200000 30.000000 1.800000
v 15.000000 30.000000 1.800000
v 15.000000 0.200000 1.800000
v 0.200000 0.200000 1.800000
vn -0.0000 -0.0000 1.0000
vn -0.0000 -0.0000 -1.0000
vn -1.0000 -0.0000 -0.0000
vn -0.0000 -1.0000 -0.0000
vn 1.0000 -0.0000 -0.0000
vn -0.0000 1.0000 -0.0000
vt 0.656168 98.425201
vt 98.425194 -6.053150
vt 0.656168 -6.053150
vt 0.656168 0.656168
vt 0.656169 -6.053150
vt 0.656168 6.053150
vt 49.212597 0.656168
vt 49.212597 6.053150
vt -0.656168 -6.053150
vt 49.212597 98.425201
vt -98.425194 -6.053150
vt 49.212597 -6.053150
vt 0.656168 -98.425201
vt 98.425194 -5.905512
vt 0.656168 -5.905512
vt 49.212597 -98.425201
vt -98.425194 -5.905512
vt 49.212597 -5.905512
vt 49.212597 -0.656168
vt 49.212597 5.905512
vt -0.656168 -5.905512
vt 0.656168 -0.656168
vt 0.656169 -5.905512
vt 0.656168 5.905512
s 1
f 4/10/1 1/1/1 2/4/1
f 2/4/1 3/7/1 4/10/1
f 7/19/2 8/22/2 6/16/2
f 5/13/2 6/16/2 8/22/2
f 2/5/3 1/2/3 5/14/3
f 5/14/3 8/23/3 2/5/3
f 3/8/4 2/6/4 8/24/4
f 8/24/4 7/20/4 3/8/4
f 4/11/5 3/9/5 7/21/5
f 7/21/5 6/17/5 4/11/5
f 1/3/6 4/12/6 6/18/6
f 6/18/6 5/15/6 1/3/6
o Forro_composto_Simples_[291115]
v 15.200001 0.200000 1.845000
v 30.000000 0.200000 1.845000
v 30.000000 30.000000 1.845000
v 15.200001 30.000000 1.845000
v 15.200001 0.200000 1.800000
v 15.200001 30.000000 1.800000
v 30.000000 30.000000 1.800000
v 30.000000 0.200000 1.800000
vn -0.0000 -0.0000 1.0000
vn -0.0000 -0.0000 -1.0000
vn -0.0000 -1.0000 -0.0000
vn 1.0000 -0.0000 -0.0000
vn -0.0000 1.0000 -0.0000
vn -1.0000 -0.0000 -0.0000
vt 49.868767 0.656168
vt 49.868767 6.053150
vt 0.656169 -6.053150
vt 98.425194 0.656168
vt 98.425194 6.053150
vt -0.656168 -6.053150
vt 98.425194 98.425194
vt -98.425194 -6.053150
vt 98.425194 -6.053150
vt 49.868767 98.425194
vt 49.868767 -6.053150
vt 98.425194 -6.053150
vt 49.868767 -0.656168
vt 49.868767 5.905512
vt 0.656169 -5.905512
vt 49.868767 -98.425194
vt 49.868767 -5.905512
vt 98.425194 -5.905512
vt 98.425194 -98.425194
vt -98.425194 -5.905512
vt 98.425194 -5.905512
vt 98.425194 -0.656168
vt 98.425194 5.905512
vt -0.656168 -5.905512
s 1
f 12/34/7 9/25/7 11/31/7
f 10/28/7 11/31/7 9/25/7
f 15/43/8 16/46/8 13/37/8
f 13/37/8 14/40/8 15/43/8
f 10/29/9 9/26/9 13/38/9
f 13/38/9 16/47/9 10/29/9
f 11/32/10 10/30/10 16/48/10
f 16/48/10 15/44/10 11/32/10
f 12/35/11 11/33/11 14/41/11
f 15/45/11 14/41/11 11/33/11
f 9/27/12 12/36/12 14/42/12
f 14/42/12 13/39/12 9/27/12
