# Blender 3.3.1
# www.blender.org
mtllib A4-PAR.mtl
o Parede_básica_Genérico_-_200_mm_[288866]
v 0.000000 30.000000 -0.000000
v 0.200000 30.000000 0.000000
v 15.000000 30.000000 -0.000000
v 15.200001 30.000000 0.000000
v 30.000000 30.000000 0.000000
v 30.200001 30.000000 -0.000000
v 30.200001 30.000000 3.000000
v 30.000000 30.000000 3.000000
v 15.200001 30.000000 3.000000
v 15.000000 30.000000 3.000000
v 0.200000 30.000000 3.000000
v 0.000000 30.000000 3.000000
v 0.000000 30.200001 0.000000
v 0.000000 30.200001 3.000000
v 30.200001 30.200001 3.000000
v 30.200001 30.200001 0.000000
vn -0.0000 -1.0000 -0.0000
vn -0.0000 1.0000 -0.0000
vn -0.0000 -0.0000 -1.0000
vn -0.0000 -0.0000 1.0000
vn 1.0000 -0.0000 -0.0000
vn -1.0000 -0.0000 -0.0000
vt -0.328084 -0.000000
vt -0.328084 0.328084
vt -98.097115 0.000000
vt 0.328084 0.000000
vt 0.328084 0.328084
vt 48.884514 -0.000000
vt 48.884514 0.328084
vt 49.540684 0.000000
vt 49.540684 0.328084
vt 98.097115 0.000000
vt 98.097115 0.328084
vt 98.753281 -0.000000
vt 98.753281 0.328084
vt -0.328084 0.000000
vt 98.753281 9.842520
vt 98.753281 -0.328084
vt -0.328084 9.842520
vt 98.097115 9.842520
vt 98.097115 -0.328084
vt 49.540684 9.842520
vt 49.540684 -0.328084
vt 48.884514 9.842520
vt 48.884514 -0.328084
vt 0.328084 9.842520
vt 0.328082 -0.328084
vt -0.328084 9.842520
vt -0.328084 -0.328084
vt -98.097115 9.842520
vt 0.328084 0.000000
vt -0.328084 -0.328084
vt -98.753281 0.000000
vt 0.328084 9.842520
vt -0.328084 0.328084
vt -98.753281 9.842520
vt -98.753281 9.842520
vt 98.753281 0.328084
vt 0.328084 9.842520
vt -98.753281 0.000000
vt 98.753281 -0.328084
vt 0.328084 0.000000
s 1
f 11/24/1 1/1/1 2/4/1
f 10/22/1 2/4/1 3/6/1
f 1/1/1 11/24/1 12/26/1
f 11/24/1 2/4/1 10/22/1
f 3/6/1 9/20/1 10/22/1
f 9/20/1 4/8/1 5/10/1
f 8/18/1 5/10/1 6/12/1
f 5/10/1 8/18/1 9/20/1
f 8/18/1 6/12/1 7/15/1
f 4/8/1 9/20/1 3/6/1
f 15/35/2 16/38/2 13/29/2
f 13/29/2 14/32/2 15/35/2
f 2/5/3 1/2/3 13/30/3
f 6/13/3 5/11/3 16/39/3
f 3/7/3 13/30/3 16/39/3
f 13/30/3 3/7/3 2/5/3
f 4/9/3 16/39/3 5/11/3
f 16/39/3 4/9/3 3/7/3
f 8/19/4 7/16/4 15/36/4
f 12/27/4 11/25/4 14/33/4
f 9/21/4 15/36/4 14/33/4
f 15/36/4 9/21/4 8/19/4
f 10/23/4 14/33/4 11/25/4
f 14/33/4 10/23/4 9/21/4
f 7/17/5 6/14/5 16/40/5
f 16/40/5 15/37/5 7/17/5
f 14/34/6 13/31/6 1/3/6
f 1/3/6 12/28/6 14/34/6
o Parede_básica_Genérico_-_200_mm_[288969]
v 30.000000 30.000000 0.000000
v 30.000000 15.200001 0.000000
v 30.000000 15.000000 -0.000000
v 30.000000 0.200000 0.000000
v 30.000000 -0.000000 0.000000
v 30.000000 -0.000000 3.000000
v 30.000000 0.200000 3.000000
v 30.000000 15.000000 3.000000
v 30.000000 15.200001 3.000000
v 30.000000 30.000000 3.000000
v 30.200001 30.000000 0.000000
v 30.200001 30.000000 3.000000
v 30.200001 -0.000000 3.000000
v 30.200001 -0.000000 0.000000
vn -1.0000 -0.0000 -0.0000
vn 1.0000 -0.0000 -0.0000
vn -0.0000 -0.0000 -1.0000
vn -0.0000 -0.0000 1.0000
vn 0.0001 -0.0000 1.0000
vn -0.0000 1.0000 -0.0000
vn -0.0000 -1.0000 -0.0000
vt 0.328084 0.328084
vt 0.328082 0.000000
vt 48.884514 0.000000
vt 48.884514 0.328084
vt 49.540684 -0.000000
vt 49.540684 0.328084
vt 98.097115 0.000000
vt 98.097115 0.328084
vt 98.753281 0.000000
vt 98.753281 0.328084
vt -0.328084 0.000000
vt 98.753281 9.842520
vt 98.753281 -0.328084
vt -0.328084 9.842520
vt 98.097115 9.842520
vt 98.097115 -0.328084
vt 49.540684 9.842520
vt 49.540684 -0.328084
vt 48.884514 9.842520
vt 48.884514 -0.328084
vt 0.328082 -0.328084
vt 0.328082 9.842520
vt 0.328084 -0.328084
vt -0.328084 0.000000
vt 0.328082 0.328084
vt -0.328084 9.842520
vt -98.753281 9.842520
vt 98.753281 0.328084
vt 0.328084 9.842520
vt -98.753281 0.000000
vt 98.753281 -0.328084
vt 0.328084 0.000000
s 1
f 17/42/7 18/43/7 25/59/7
f 17/42/7 25/59/7 26/62/7
f 25/59/7 18/43/7 19/45/7
f 25/59/7 19/45/7 24/57/7
f 20/47/7 21/49/7 23/55/7
f 23/55/7 24/57/7 19/45/7
f 23/55/7 21/49/7 22/52/7
f 23/55/7 19/45/7 20/47/7
f 29/67/8 30/70/8 27/64/8
f 27/64/8 28/66/8 29/67/8
f 21/50/9 20/48/9 30/71/9
f 18/44/9 27/63/9 19/46/9
f 27/63/9 18/44/9 17/41/9
f 19/46/9 30/71/9 20/48/9
f 30/71/9 19/46/9 27/63/9
f 23/56/10 22/53/10 29/68/10
f 24/58/10 29/68/10 28/65/10
f 29/68/10 24/58/10 23/56/10
f 25/60/11 28/65/10 26/61/10
f 28/65/10 25/60/11 24/58/10
f 27/64/12 17/42/12 26/62/12
f 26/62/12 28/66/12 27/64/12
f 22/54/13 21/51/13 30/72/13
f 30/72/13 29/69/13 22/54/13
o Parede_básica_Genérico_-_200_mm_[289080]
v 30.000000 0.200000 0.000000
v 15.200001 0.200000 -0.000000
v 15.000000 0.200000 -0.000000
v 0.200000 0.200000 0.000000
v 0.000000 0.200000 0.000000
v 0.000000 0.200000 3.000000
v 0.200000 0.200000 3.000000
v 15.000000 0.200000 3.000000
v 15.200001 0.200000 3.000000
v 30.000000 0.200000 3.000000
v 30.000000 -0.000000 0.000000
v 30.000000 -0.000000 3.000000
v 0.000000 -0.000000 3.000000
v 0.000000 -0.000000 0.000000
vn -0.0000 1.0000 -0.0000
vn -0.0000 -1.0000 -0.0000
vn -0.0000 -0.0000 -1.0000
vn -0.0000 -0.0000 1.0000
vn 1.0000 -0.0000 -0.0000
vn -1.0000 -0.0000 -0.0000
vt 0.328084 0.328084
vt 0.328082 0.000000
vt 48.884514 -0.000000
vt 48.884514 0.328084
vt 49.540684 -0.000000
vt 49.540684 0.328084
vt 98.097115 0.000000
vt 98.097115 0.328084
vt 98.753281 0.000000
vt 98.753281 0.328084
vt -0.328084 0.000000
vt 98.753281 9.842520
vt 98.753281 -0.328084
vt -0.328084 9.842520
vt 98.097115 9.842520
vt 98.097115 -0.328084
vt 49.540684 9.842520
vt 49.540684 -0.328084
vt 48.884514 9.842520
vt 48.884514 -0.328084
vt 0.328082 -0.328084
vt 0.328082 9.842520
vt 0.328084 -0.328084
vt -0.328084 0.000000
vt 0.328082 0.328084
vt -0.328084 9.842520
vt -98.753281 9.842520
vt 98.753281 0.328084
vt 0.328084 9.842520
vt -98.753281 0.000000
vt 98.753281 -0.328084
vt 0.328084 0.000000
s 1
f 31/74/14 32/75/14 39/91/14
f 31/74/14 39/91/14 40/94/14
f 39/91/14 32/75/14 33/77/14
f 39/91/14 33/77/14 38/89/14
f 34/79/14 35/81/14 37/87/14
f 37/87/14 38/89/14 33/77/14
f 37/87/14 35/81/14 36/84/14
f 37/87/14 33/77/14 34/79/14
f 43/99/15 44/102/15 41/96/15
f 41/96/15 42/98/15 43/99/15
f 35/82/16 34/80/16 44/103/16
f 32/76/16 41/95/16 33/78/16
f 41/95/16 32/76/16 31/73/16
f 33/78/16 44/103/16 34/80/16
f 44/103/16 33/78/16 41/95/16
f 37/88/17 36/85/17 43/100/17
f 38/90/17 43/100/17 42/97/17
f 43/100/17 38/90/17 37/88/17
f 39/92/17 42/97/17 40/93/17
f 42/97/17 39/92/17 38/90/17
f 41/96/18 31/74/18 40/94/18
f 40/94/18 42/98/18 41/96/18
f 36/86/19 35/83/19 44/104/19
f 44/104/19 43/101/19 36/86/19
o Parede_básica_Genérico_-_200_mm_[289137]
v 0.200000 0.200000 0.000000
v 0.200000 15.000000 0.000000
v 0.200000 15.200001 0.000000
v 0.200000 30.000000 -0.000000
v 0.200000 30.000000 3.000000
v 0.200000 15.200001 3.000000
v 0.200000 15.000000 3.000000
v 0.200000 0.200000 3.000000
v -0.000000 0.200000 0.000000
v -0.000000 0.200000 3.000000
v 0.000000 30.000000 3.000000
v 0.000000 30.000000 0.000000
vn 1.0000 -0.0000 -0.0000
vn -1.0000 -0.0000 -0.0000
vn -0.0000 -0.0000 -1.0000
vn -0.0000 -0.0000 1.0000
vn 0.0001 -0.0000 1.0000
vn -0.0000 1.0000 -0.0000
vn -0.0000 -1.0000 -0.0000
vt 0.328084 0.328084
vt 0.328082 0.000000
vt 48.884514 0.000000
vt 48.884514 0.328084
vt 49.540684 0.000000
vt 49.540684 0.328084
vt 98.097115 -0.000000
vt 98.097115 0.328084
vt -0.328084 0.000000
vt 98.097115 9.842520
vt 98.097115 -0.328084
vt -0.328084 9.842520
vt 49.540684 9.842520
vt 49.540684 -0.328084
vt 48.884514 9.842520
vt 48.884514 -0.328084
vt 0.328082 -0.328084
vt 0.328082 9.842520
vt 0.328084 -0.328084
vt -0.328084 0.000000
vt 0.328082 0.328084
vt -0.328084 9.842520
vt -98.097115 9.842520
vt 98.097115 0.328084
vt 0.328084 9.842520
vt -98.097115 0.000000
vt 98.097115 -0.328084
vt 0.328084 0.000000
s 1
f 45/106/20 46/107/20 51/119/20
f 51/119/20 52/122/20 45/106/20
f 46/107/20 50/117/20 51/119/20
f 47/109/20 48/111/20 50/117/20
f 49/114/20 50/117/20 48/111/20
f 47/109/20 50/117/20 46/107/20
f 55/127/21 56/130/21 53/124/21
f 53/124/21 54/126/21 55/127/21
f 48/112/22 47/110/22 56/131/22
f 46/108/22 53/123/22 56/131/22
f 53/123/22 46/108/22 45/105/22
f 46/108/22 56/131/22 47/110/22
f 52/121/23 51/120/24 54/125/23
f 50/118/23 55/128/23 54/125/23
f 55/128/23 50/118/23 49/115/23
f 50/118/23 54/125/23 51/120/24
f 48/113/25 56/132/25 55/129/25
f 55/129/25 49/116/25 48/113/25
f 53/124/26 45/106/26 52/122/26
f 52/122/26 54/126/26 53/124/26
o Parede_básica_Genérico_-_200_mm_[289322]
v 15.000000 30.000000 0.000000
v 15.000000 15.200001 0.000000
v 15.000000 15.000000 0.000000
v 15.000000 0.200000 -0.000000
v 15.000000 0.200000 3.000000
v 15.000000 15.000000 3.000000
v 15.000000 15.200001 3.000000
v 15.000000 30.000000 3.000000
v 15.200001 30.000000 0.000000
v 15.200001 30.000000 3.000000
v 15.200001 15.200001 3.000000
v 15.200001 15.000000 3.000000
v 15.200001 0.200000 3.000000
v 15.200001 0.200000 0.000000
v 15.200001 15.000000 0.000000
v 15.200001 15.200001 0.000000
vn -1.0000 -0.0000 -0.0000
vn 1.0000 -0.0000 -0.0000
vn -0.0000 -0.0000 -1.0000
vn -0.0000 -0.0000 1.0000
vn -0.0000 1.0000 -0.0000
vn -0.0000 -1.0000 -0.0000
vt 0.328084 0.328084
vt 0.328085 0.000000
vt 48.884514 0.000000
vt 48.884514 0.328084
vt 49.540684 0.000000
vt 49.540684 0.328084
vt 98.097115 -0.000000
vt 98.097115 0.328084
vt -0.328085 0.000000
vt 98.097115 9.842520
vt 98.097115 -0.328084
vt -0.328085 9.842520
vt 49.540684 9.842520
vt 49.540684 -0.328084
vt 48.884514 9.842520
vt 48.884514 -0.328084
vt 0.328082 -0.328084
vt 0.328085 9.842520
vt 0.328084 -0.328084
vt -0.328085 0.000000
vt 0.328082 0.328084
vt -0.328085 9.842520
vt -48.884514 9.842520
vt 48.884514 0.328084
vt -49.540684 9.842520
vt 49.540684 0.328084
vt -98.097115 9.842520
vt 98.097115 0.328084
vt 0.328085 9.842520
vt -98.097115 0.000000
vt 98.097115 -0.328084
vt 0.328085 0.000000
vt -49.540684 0.000000
vt 49.540684 -0.328084
vt -48.884514 0.000000
vt 48.884514 -0.328084
s 1
f 57/134/27 58/135/27 63/147/27
f 63/147/27 64/150/27 57/134/27
f 58/135/27 62/145/27 63/147/27
f 59/137/27 60/139/27 62/145/27
f 61/142/27 62/145/27 60/139/27
f 59/137/27 62/145/27 58/135/27
f 70/162/28 71/165/28 68/157/28
f 68/157/28 69/159/28 70/162/28
f 71/165/28 67/155/28 68/157/28
f 72/167/28 65/152/28 67/155/28
f 66/154/28 67/155/28 65/152/28
f 72/167/28 67/155/28 71/165/28
f 58/136/29 57/133/29 72/168/29
f 71/166/29 60/140/29 59/138/29
f 59/138/29 58/136/29 71/166/29
f 65/151/29 72/168/29 57/133/29
f 70/163/29 60/140/29 71/166/29
f 71/166/29 58/136/29 72/168/29
f 62/146/30 61/143/30 68/158/30
f 67/156/30 64/149/30 63/148/30
f 63/148/30 62/146/30 67/156/30
f 69/160/30 68/158/30 61/143/30
f 66/153/30 64/149/30 67/156/30
f 67/156/30 62/146/30 68/158/30
f 65/152/31 57/134/31 64/150/31
f 64/150/31 66/154/31 65/152/31
f 60/141/32 70/164/32 69/161/32
f 69/161/32 61/144/32 60/141/32
o Parede_básica_Genérico_-_200_mm_[289390]
v 30.000000 15.000000 0.000000
v 30.000000 15.000000 3.000000
v 15.200001 15.000000 3.000000
v 15.200001 15.000000 0.000000
v 0.200000 15.000000 3.000000
v 0.200000 15.000000 0.000000
v 15.000000 15.000000 0.000000
v 15.000000 15.000000 3.000000
v 30.000000 15.200001 3.000000
v 30.000000 15.200001 0.000000
v 15.200001 15.200001 0.000000
v 15.200001 15.200001 3.000000
v 0.200000 15.200001 0.000000
v 0.200000 15.200001 3.000000
v 15.000000 15.200001 3.000000
v 15.000000 15.200001 0.000000
vn -0.0000 -1.0000 -0.0000
vn -0.0000 1.0000 -0.0000
vn -0.0000 -0.0000 -1.0000
vn -0.0000 -0.0000 1.0000
vn 1.0000 -0.0000 -0.0000
vn -1.0000 -0.0000 -0.0000
vt 98.097115 0.000000
vt 98.097115 0.328084
vt -0.328085 0.000000
vt 98.097115 9.842520
vt 98.097115 -0.328084
vt -0.328085 9.842520
vt 49.540684 9.842520
vt 49.540684 -0.328084
vt 0.328085 9.842520
vt 49.540684 0.000000
vt 49.540684 0.328084
vt 0.328085 0.000000
vt 0.328082 -0.328084
vt 0.328085 9.842520
vt 0.328084 0.328084
vt 0.328085 0.000000
vt 48.884514 0.000000
vt 48.884514 0.328084
vt -0.328085 0.000000
vt 48.884514 9.842520
vt 48.884514 -0.328084
vt -0.328085 9.842520
vt -98.097115 9.842520
vt 98.097115 0.328084
vt 0.328085 9.842520
vt -98.097115 0.000000
vt 98.097115 -0.328084
vt 0.328085 0.000000
vt -49.540684 0.000000
vt 49.540684 -0.328084
vt -0.328085 0.000000
vt -49.540684 9.842520
vt 49.540684 0.328084
vt -0.328085 9.842520
vt 0.328084 -0.328084
vt -0.328085 0.000000
vt 0.328082 0.328084
vt -0.328085 9.842520
vt -48.884514 9.842520
vt 48.884514 0.328084
vt 0.328085 9.842520
vt -48.884514 0.000000
vt 48.884514 -0.328084
vt 0.328085 0.000000
s 1
f 75/175/33 76/178/33 73/169/33
f 73/169/33 74/172/33 75/175/33
f 77/182/33 78/184/33 80/188/33
f 79/185/33 80/188/33 78/184/33
f 81/191/34 82/194/34 83/197/34
f 83/197/34 84/200/34 81/191/34
f 87/207/34 88/210/34 85/204/34
f 85/204/34 86/206/34 87/207/34
f 79/186/35 78/183/35 88/211/35
f 85/203/35 88/211/35 78/183/35
f 73/170/35 76/179/35 83/198/35
f 83/198/35 82/195/35 73/170/35
f 77/181/36 80/189/36 86/205/36
f 87/208/36 86/205/36 80/189/36
f 75/176/36 74/173/36 84/201/36
f 81/192/36 84/201/36 74/173/36
f 73/171/37 82/196/37 81/193/37
f 81/193/37 74/174/37 73/171/37
f 85/204/38 78/184/38 77/182/38
f 77/182/38 86/206/38 85/204/38
f 79/187/37 88/212/37 87/209/37
f 87/209/37 80/190/37 79/187/37
f 83/199/38 76/180/38 75/177/38
f 75/177/38 84/202/38 83/199/38
