# Blender 3.3.1
# www.blender.org
mtllib A8-PAR.mtl
o Parede_básica_Genérico_-_200_mm_[288866]
v 0.000000 30.000000 -0.000000
v 0.200000 30.000000 0.000000
v 7.400000 30.000000 -0.000000
v 7.600000 30.000000 0.000000
v 15.000000 30.000000 -0.000000
v 15.200001 30.000000 0.000000
v 22.600000 30.000000 0.000000
v 22.799999 30.000000 0.000000
v 30.000000 30.000000 0.000000
v 30.200001 30.000000 -0.000000
v 30.200001 30.000000 3.000000
v 30.000000 30.000000 3.000000
v 22.799999 30.000000 3.000000
v 22.600000 30.000000 3.000000
v 15.200001 30.000000 3.000000
v 15.000000 30.000000 3.000000
v 7.600000 30.000000 3.000000
v 7.400000 30.000000 3.000000
v 0.200000 30.000000 3.000000
v 0.000000 30.000000 3.000000
v 0.000000 30.200001 0.000000
v 0.000000 30.200001 3.000000
v 30.200001 30.200001 3.000000
v 30.200001 30.200001 0.000000
vn -0.0000 -1.0000 -0.0000
vn -0.0000 1.0000 -0.0000
vn -0.0000 -0.0000 -1.0000
vn -0.0000 -0.0000 1.0000
vn 1.0000 -0.0000 -0.0000
vn -1.0000 -0.0000 -0.0000
vt -0.328084 -0.000000
vt -0.328084 0.328084
vt -98.097115 0.000000
vt 0.328084 0.000000
vt 0.328084 0.328084
vt 23.950130 -0.000000
vt 23.950130 0.328084
vt 24.606298 0.000000
vt 24.606298 0.328084
vt 48.884514 -0.000000
vt 48.884514 0.328084
vt 49.540684 0.000000
vt 49.540684 0.328084
vt 73.818901 0.000000
vt 73.818901 0.328084
vt 74.475067 0.000000
vt 74.475067 0.328084
vt 98.097115 0.000000
vt 98.097115 0.328084
vt 98.753281 -0.000000
vt 98.753281 0.328084
vt -0.328084 0.000000
vt 98.753281 9.842520
vt 98.753281 -0.328084
vt -0.328084 9.842520
vt 98.097115 9.842520
vt 98.097115 -0.328084
vt 74.475067 9.842520
vt 74.475067 -0.328084
vt 73.818901 9.842520
vt 73.818901 -0.328084
vt 49.540684 9.842520
vt 49.540684 -0.328084
vt 48.884514 9.842520
vt 48.884514 -0.328084
vt 24.606298 9.842520
vt 24.606297 -0.328084
vt 23.950130 9.842520
vt 23.950130 -0.328084
vt 0.328084 9.842520
vt 0.328082 -0.328084
vt -0.328084 9.842520
vt -0.328084 -0.328084
vt -98.097115 9.842520
vt 0.328084 0.000000
vt -0.328084 -0.328084
vt -98.753281 0.000000
vt 0.328084 9.842520
vt -0.328084 0.328084
vt -98.753281 9.842520
vt -98.753281 9.842520
vt 98.753281 0.328084
vt 0.328084 9.842520
vt -98.753281 0.000000
vt 98.753281 -0.328084
vt 0.328084 0.000000
s 1
f 19/40/1 1/1/1 2/4/1
f 17/36/1 3/6/1 4/8/1
f 2/4/1 3/6/1 18/38/1
f 4/8/1 5/10/1 16/34/1
f 20/42/1 1/1/1 19/40/1
f 3/6/1 17/36/1 18/38/1
f 18/38/1 19/40/1 2/4/1
f 17/36/1 4/8/1 16/34/1
f 5/10/1 15/32/1 16/34/1
f 15/32/1 6/12/1 7/14/1
f 13/28/1 8/16/1 9/18/1
f 7/14/1 8/16/1 14/30/1
f 12/26/1 9/18/1 10/20/1
f 15/32/1 7/14/1 14/30/1
f 13/28/1 14/30/1 8/16/1
f 9/18/1 12/26/1 13/28/1
f 10/20/1 11/23/1 12/26/1
f 6/12/1 15/32/1 5/10/1
f 23/51/2 24/54/2 21/45/2
f 21/45/2 22/48/2 23/51/2
f 2/5/3 21/46/3 3/7/3
f 21/46/3 2/5/3 1/2/3
f 24/55/3 10/21/3 9/19/3
f 24/55/3 9/19/3 8/17/3
f 4/9/3 21/46/3 5/11/3
f 21/46/3 4/9/3 3/7/3
f 5/11/3 21/46/3 24/55/3
f 7/15/3 6/13/3 24/55/3
f 24/55/3 6/13/3 5/11/3
f 7/15/3 24/55/3 8/17/3
f 12/27/4 23/52/4 13/29/4
f 23/52/4 12/27/4 11/24/4
f 22/49/4 20/43/4 19/41/4
f 22/49/4 19/41/4 18/39/4
f 14/31/4 23/52/4 15/33/4
f 23/52/4 14/31/4 13/29/4
f 15/33/4 23/52/4 22/49/4
f 17/37/4 16/35/4 22/49/4
f 22/49/4 16/35/4 15/33/4
f 17/37/4 22/49/4 18/39/4
f 11/25/5 10/22/5 24/56/5
f 24/56/5 23/53/5 11/25/5
f 22/50/6 21/47/6 1/3/6
f 1/3/6 20/44/6 22/50/6
o Parede_básica_Genérico_-_200_mm_[288969]
v 30.000000 30.000000 0.000000
v 30.000000 15.200001 0.000000
v 30.000000 15.000000 -0.000000
v 30.000000 0.200000 0.000000
v 30.000000 -0.000000 0.000000
v 30.000000 -0.000000 3.000000
v 30.000000 0.200000 3.000000
v 30.000000 15.000000 3.000000
v 30.000000 15.200001 3.000000
v 30.000000 30.000000 3.000000
v 30.200001 30.000000 0.000000
v 30.200001 30.000000 3.000000
v 30.200001 -0.000000 3.000000
v 30.200001 -0.000000 0.000000
vn -1.0000 -0.0000 -0.0000
vn 1.0000 -0.0000 -0.0000
vn -0.0000 -0.0000 -1.0000
vn -0.0000 -0.0000 1.0000
vn 0.0001 -0.0000 1.0000
vn -0.0000 1.0000 -0.0000
vn -0.0000 -1.0000 -0.0000
vt 0.328084 0.328084
vt 0.328082 0.000000
vt 48.884514 0.000000
vt 48.884514 0.328084
vt 49.540684 -0.000000
vt 49.540684 0.328084
vt 98.097115 0.000000
vt 98.097115 0.328084
vt 98.753281 0.000000
vt 98.753281 0.328084
vt -0.328084 0.000000
vt 98.753281 9.842520
vt 98.753281 -0.328084
vt -0.328084 9.842520
vt 98.097115 9.842520
vt 98.097115 -0.328084
vt 49.540684 9.842520
vt 49.540684 -0.328084
vt 48.884514 9.842520
vt 48.884514 -0.328084
vt 0.328082 -0.328084
vt 0.328082 9.842520
vt 0.328084 -0.328084
vt -0.328084 0.000000
vt 0.328082 0.328084
vt -0.328084 9.842520
vt -98.753281 9.842520
vt 98.753281 0.328084
vt 0.328084 9.842520
vt -98.753281 0.000000
vt 98.753281 -0.328084
vt 0.328084 0.000000
s 1
f 25/58/7 26/59/7 33/75/7
f 25/58/7 33/75/7 34/78/7
f 33/75/7 26/59/7 27/61/7
f 33/75/7 27/61/7 32/73/7
f 28/63/7 29/65/7 31/71/7
f 31/71/7 32/73/7 27/61/7
f 31/71/7 29/65/7 30/68/7
f 31/71/7 27/61/7 28/63/7
f 37/83/8 38/86/8 35/80/8
f 35/80/8 36/82/8 37/83/8
f 29/66/9 28/64/9 38/87/9
f 26/60/9 35/79/9 27/62/9
f 35/79/9 26/60/9 25/57/9
f 27/62/9 38/87/9 28/64/9
f 38/87/9 27/62/9 35/79/9
f 31/72/10 30/69/10 37/84/10
f 32/74/10 37/84/10 36/81/10
f 37/84/10 32/74/10 31/72/10
f 33/76/11 36/81/10 34/77/10
f 36/81/10 33/76/11 32/74/10
f 35/80/12 25/58/12 34/78/12
f 34/78/12 36/82/12 35/80/12
f 30/70/13 29/67/13 38/88/13
f 38/88/13 37/85/13 30/70/13
o Parede_básica_Genérico_-_200_mm_[289080]
v 30.000000 0.200000 0.000000
v 22.799999 0.200000 0.000000
v 22.600000 0.200000 0.000000
v 15.200001 0.200000 -0.000000
v 15.000000 0.200000 -0.000000
v 7.600000 0.200000 0.000000
v 7.400000 0.200000 0.000000
v 0.200000 0.200000 0.000000
v 0.000000 0.200000 0.000000
v 0.000000 0.200000 3.000000
v 0.200000 0.200000 3.000000
v 7.400000 0.200000 3.000000
v 7.600000 0.200000 3.000000
v 15.000000 0.200000 3.000000
v 15.200001 0.200000 3.000000
v 22.600000 0.200000 3.000000
v 22.799999 0.200000 3.000000
v 30.000000 0.200000 3.000000
v 30.000000 -0.000000 0.000000
v 30.000000 -0.000000 3.000000
v 0.000000 -0.000000 3.000000
v 0.000000 -0.000000 0.000000
vn -0.0000 1.0000 -0.0000
vn -0.0000 -1.0000 -0.0000
vn -0.0000 -0.0000 -1.0000
vn -0.0000 -0.0000 1.0000
vn 1.0000 -0.0000 -0.0000
vn -1.0000 -0.0000 -0.0000
vt 0.328084 0.328084
vt 0.328082 0.000000
vt 23.950130 0.000000
vt 23.950130 0.328084
vt 24.606298 0.000000
vt 24.606298 0.328084
vt 48.884514 -0.000000
vt 48.884514 0.328084
vt 49.540684 -0.000000
vt 49.540684 0.328084
vt 73.818901 0.000000
vt 73.818901 0.328084
vt 74.475067 0.000000
vt 74.475067 0.328084
vt 98.097115 0.000000
vt 98.097115 0.328084
vt 98.753281 0.000000
vt 98.753281 0.328084
vt -0.328084 0.000000
vt 98.753281 9.842520
vt 98.753281 -0.328084
vt -0.328084 9.842520
vt 98.097115 9.842520
vt 98.097115 -0.328084
vt 74.475067 9.842520
vt 74.475067 -0.328084
vt 73.818901 9.842520
vt 73.818901 -0.328084
vt 49.540684 9.842520
vt 49.540684 -0.328084
vt 48.884514 9.842520
vt 48.884514 -0.328084
vt 24.606298 9.842520
vt 24.606297 -0.328084
vt 23.950130 9.842520
vt 23.950130 -0.328084
vt 0.328082 -0.328084
vt 0.328082 9.842520
vt 0.328084 -0.328084
vt -0.328084 0.000000
vt 0.328082 0.328084
vt -0.328084 9.842520
vt -98.753281 9.842520
vt 98.753281 0.328084
vt 0.328084 9.842520
vt -98.753281 0.000000
vt 98.753281 -0.328084
vt 0.328084 0.000000
s 1
f 55/123/14 39/90/14 40/91/14
f 40/91/14 41/93/14 54/121/14
f 42/95/14 53/119/14 41/93/14
f 56/126/14 39/90/14 55/123/14
f 41/93/14 53/119/14 54/121/14
f 54/121/14 55/123/14 40/91/14
f 53/119/14 43/97/14 52/117/14
f 53/119/14 42/95/14 43/97/14
f 51/115/14 44/99/14 45/101/14
f 50/113/14 45/101/14 46/103/14
f 49/111/14 46/103/14 47/105/14
f 43/97/14 51/115/14 52/117/14
f 50/113/14 51/115/14 45/101/14
f 46/103/14 49/111/14 50/113/14
f 47/105/14 48/108/14 49/111/14
f 51/115/14 43/97/14 44/99/14
f 59/131/15 60/134/15 57/128/15
f 57/128/15 58/130/15 59/131/15
f 40/92/16 39/89/16 57/127/16
f 60/135/16 47/106/16 46/104/16
f 60/135/16 46/104/16 45/102/16
f 41/94/16 57/127/16 42/96/16
f 57/127/16 41/94/16 40/92/16
f 42/96/16 57/127/16 43/98/16
f 44/100/16 43/98/16 60/135/16
f 60/135/16 43/98/16 57/127/16
f 44/100/16 60/135/16 45/102/16
f 49/112/17 48/109/17 59/132/17
f 58/129/17 56/125/17 55/124/17
f 58/129/17 55/124/17 54/122/17
f 50/114/17 59/132/17 51/116/17
f 59/132/17 50/114/17 49/112/17
f 51/116/17 59/132/17 52/118/17
f 53/120/17 52/118/17 58/129/17
f 58/129/17 52/118/17 59/132/17
f 53/120/17 58/129/17 54/122/17
f 57/128/18 39/90/18 56/126/18
f 56/126/18 58/130/18 57/128/18
f 48/110/19 47/107/19 60/136/19
f 60/136/19 59/133/19 48/110/19
o Parede_básica_Genérico_-_200_mm_[289137]
v 0.200000 0.200000 0.000000
v 0.200000 15.000000 0.000000
v 0.200000 15.200001 0.000000
v 0.200000 30.000000 -0.000000
v 0.200000 30.000000 3.000000
v 0.200000 15.200001 3.000000
v 0.200000 15.000000 3.000000
v 0.200000 0.200000 3.000000
v -0.000000 0.200000 0.000000
v -0.000000 0.200000 3.000000
v 0.000000 30.000000 3.000000
v 0.000000 30.000000 0.000000
vn 1.0000 -0.0000 -0.0000
vn -1.0000 -0.0000 -0.0000
vn -0.0000 -0.0000 -1.0000
vn -0.0000 -0.0000 1.0000
vn 0.0001 -0.0000 1.0000
vn -0.0000 1.0000 -0.0000
vn -0.0000 -1.0000 -0.0000
vt 0.328084 0.328084
vt 0.328082 0.000000
vt 48.884514 0.000000
vt 48.884514 0.328084
vt 49.540684 0.000000
vt 49.540684 0.328084
vt 98.097115 -0.000000
vt 98.097115 0.328084
vt -0.328084 0.000000
vt 98.097115 9.842520
vt 98.097115 -0.328084
vt -0.328084 9.842520
vt 49.540684 9.842520
vt 49.540684 -0.328084
vt 48.884514 9.842520
vt 48.884514 -0.328084
vt 0.328082 -0.328084
vt 0.328082 9.842520
vt 0.328084 -0.328084
vt -0.328084 0.000000
vt 0.328082 0.328084
vt -0.328084 9.842520
vt -98.097115 9.842520
vt 98.097115 0.328084
vt 0.328084 9.842520
vt -98.097115 0.000000
vt 98.097115 -0.328084
vt 0.328084 0.000000
s 1
f 61/138/20 62/139/20 67/151/20
f 67/151/20 68/154/20 61/138/20
f 62/139/20 66/149/20 67/151/20
f 63/141/20 64/143/20 66/149/20
f 65/146/20 66/149/20 64/143/20
f 63/141/20 66/149/20 62/139/20
f 71/159/21 72/162/21 69/156/21
f 69/156/21 70/158/21 71/159/21
f 64/144/22 63/142/22 72/163/22
f 62/140/22 69/155/22 72/163/22
f 69/155/22 62/140/22 61/137/22
f 62/140/22 72/163/22 63/142/22
f 68/153/23 67/152/24 70/157/23
f 66/150/23 71/160/23 70/157/23
f 71/160/23 66/150/23 65/147/23
f 66/150/23 70/157/23 67/152/24
f 64/145/25 72/164/25 71/161/25
f 71/161/25 65/148/25 64/145/25
f 69/156/26 61/138/26 68/154/26
f 68/154/26 70/158/26 69/156/26
o Parede_básica_Genérico_-_200_mm_[289322]
v 15.000000 30.000000 0.000000
v 15.000000 15.200001 0.000000
v 15.000000 15.000000 0.000000
v 15.000000 0.200000 -0.000000
v 15.000000 0.200000 3.000000
v 15.000000 15.000000 3.000000
v 15.000000 15.200001 3.000000
v 15.000000 30.000000 3.000000
v 15.200001 30.000000 0.000000
v 15.200001 30.000000 3.000000
v 15.200001 15.200001 3.000000
v 15.200001 15.000000 3.000000
v 15.200001 0.200000 3.000000
v 15.200001 0.200000 0.000000
v 15.200001 15.000000 0.000000
v 15.200001 15.200001 0.000000
vn -1.0000 -0.0000 -0.0000
vn 1.0000 -0.0000 -0.0000
vn -0.0000 -0.0000 -1.0000
vn -0.0000 -0.0000 1.0000
vn -0.0000 1.0000 -0.0000
vn -0.0000 -1.0000 -0.0000
vt 0.328084 0.328084
vt 0.328085 0.000000
vt 48.884514 0.000000
vt 48.884514 0.328084
vt 49.540684 0.000000
vt 49.540684 0.328084
vt 98.097115 -0.000000
vt 98.097115 0.328084
vt -0.328085 0.000000
vt 98.097115 9.842520
vt 98.097115 -0.328084
vt -0.328085 9.842520
vt 49.540684 9.842520
vt 49.540684 -0.328084
vt 48.884514 9.842520
vt 48.884514 -0.328084
vt 0.328082 -0.328084
vt 0.328085 9.842520
vt 0.328084 -0.328084
vt -0.328085 0.000000
vt 0.328082 0.328084
vt -0.328085 9.842520
vt -48.884514 9.842520
vt 48.884514 0.328084
vt -49.540684 9.842520
vt 49.540684 0.328084
vt -98.097115 9.842520
vt 98.097115 0.328084
vt 0.328085 9.842520
vt -98.097115 0.000000
vt 98.097115 -0.328084
vt 0.328085 0.000000
vt -49.540684 0.000000
vt 49.540684 -0.328084
vt -48.884514 0.000000
vt 48.884514 -0.328084
s 1
f 73/166/27 74/167/27 79/179/27
f 79/179/27 80/182/27 73/166/27
f 74/167/27 78/177/27 79/179/27
f 75/169/27 76/171/27 78/177/27
f 77/174/27 78/177/27 76/171/27
f 75/169/27 78/177/27 74/167/27
f 86/194/28 87/197/28 84/189/28
f 84/189/28 85/191/28 86/194/28
f 87/197/28 83/187/28 84/189/28
f 88/199/28 81/184/28 83/187/28
f 82/186/28 83/187/28 81/184/28
f 88/199/28 83/187/28 87/197/28
f 74/168/29 73/165/29 88/200/29
f 87/198/29 76/172/29 75/170/29
f 75/170/29 74/168/29 87/198/29
f 81/183/29 88/200/29 73/165/29
f 86/195/29 76/172/29 87/198/29
f 87/198/29 74/168/29 88/200/29
f 78/178/30 77/175/30 84/190/30
f 83/188/30 80/181/30 79/180/30
f 79/180/30 78/178/30 83/188/30
f 85/192/30 84/190/30 77/175/30
f 82/185/30 80/181/30 83/188/30
f 83/188/30 78/178/30 84/190/30
f 81/184/31 73/166/31 80/182/31
f 80/182/31 82/186/31 81/184/31
f 76/173/32 86/196/32 85/193/32
f 85/193/32 77/176/32 76/173/32
o Parede_básica_Genérico_-_200_mm_[289390]
v 30.000000 15.000000 -0.000000
v 30.000000 15.000000 3.000000
v 22.799999 15.000000 3.000000
v 22.600000 15.000000 3.000000
v 15.200001 15.000000 3.000000
v 15.200001 15.000000 0.000000
v 22.600000 15.000000 -0.000000
v 22.799999 15.000000 0.000000
v 0.200000 15.000000 3.000000
v 0.200000 15.000000 0.000000
v 7.400000 15.000000 0.000000
v 7.600000 15.000000 0.000000
v 15.000000 15.000000 0.000000
v 15.000000 15.000000 3.000000
v 7.600000 15.000000 3.000000
v 7.400000 15.000000 3.000000
v 30.000000 15.200001 3.000000
v 30.000000 15.200001 0.000000
v 22.799999 15.200001 0.000000
v 22.600000 15.200001 -0.000000
v 15.200001 15.200001 -0.000000
v 15.200001 15.200001 3.000000
v 22.600000 15.200001 3.000000
v 22.799999 15.200001 3.000000
v 0.200000 15.200001 0.000000
v 0.200000 15.200001 3.000000
v 7.400000 15.200001 3.000000
v 7.600000 15.200001 3.000000
v 15.000000 15.200001 3.000000
v 15.000000 15.200001 0.000000
v 7.600000 15.200001 0.000000
v 7.400000 15.200001 -0.000000
vn -0.0000 -1.0000 -0.0000
vn -0.0000 1.0000 -0.0000
vn -0.0000 -0.0000 -1.0000
vn -0.0000 -0.0000 1.0000
vn 1.0000 -0.0000 -0.0000
vn -1.0000 -0.0000 -0.0000
vt 98.097115 -0.000000
vt 98.097115 0.328084
vt -0.328085 0.000000
vt 98.097115 9.842520
vt 98.097115 -0.328084
vt -0.328085 9.842520
vt 74.475067 9.842520
vt 74.475067 -0.328084
vt 73.818901 9.842520
vt 73.818901 -0.328084
vt 49.540684 9.842520
vt 49.540684 -0.328084
vt 0.328085 9.842520
vt 49.540684 0.000000
vt 49.540684 0.328084
vt 0.328085 0.000000
vt 73.818901 -0.000000
vt 73.818901 0.328084
vt 74.475067 0.000000
vt 74.475067 0.328084
vt 0.328082 -0.328084
vt 0.328085 9.842520
vt 0.328084 0.328084
vt 0.328085 0.000000
vt 23.950130 0.000000
vt 23.950130 0.328084
vt 24.606298 0.000000
vt 24.606298 0.328084
vt 48.884514 0.000000
vt 48.884514 0.328084
vt -0.328085 0.000000
vt 48.884514 9.842520
vt 48.884514 -0.328084
vt -0.328085 9.842520
vt 24.606298 9.842520
vt 24.606297 -0.328084
vt 23.950130 9.842520
vt 23.950130 -0.328084
vt -98.097115 9.842520
vt 98.097115 0.328084
vt 0.328085 9.842520
vt -98.097115 0.000000
vt 98.097115 -0.328084
vt 0.328085 0.000000
vt -74.475067 0.000000
vt 74.475067 -0.328084
vt -73.818901 -0.000000
vt 73.818901 -0.328084
vt -49.540684 -0.000000
vt 49.540684 -0.328084
vt -0.328085 0.000000
vt -49.540684 9.842520
vt 49.540684 0.328084
vt -0.328085 9.842520
vt -73.818901 9.842520
vt 73.818901 0.328084
vt -74.475067 9.842520
vt 74.475067 0.328084
vt 0.328084 -0.328084
vt -0.328085 0.000000
vt 0.328082 0.328084
vt -0.328085 9.842520
vt -23.950130 9.842520
vt 23.950130 0.328084
vt -24.606298 9.842520
vt 24.606297 0.328084
vt -48.884514 9.842520
vt 48.884514 0.328084
vt 0.328085 9.842520
vt -48.884514 0.000000
vt 48.884514 -0.328084
vt 0.328085 0.000000
vt -24.606298 0.000000
vt 24.606298 -0.328084
vt -23.950130 -0.000000
vt 23.950130 -0.328084
s 1
f 94/214/33 95/217/33 93/211/33
f 92/209/33 93/211/33 95/217/33
f 95/217/33 96/219/33 92/209/33
f 96/219/33 89/201/33 91/207/33
f 90/204/33 91/207/33 89/201/33
f 96/219/33 91/207/33 92/209/33
f 98/224/33 99/225/33 104/237/33
f 104/237/33 97/222/33 98/224/33
f 99/225/33 103/235/33 104/237/33
f 100/227/33 101/229/33 102/232/33
f 102/232/33 103/235/33 100/227/33
f 100/227/33 103/235/33 99/225/33
f 106/242/34 107/245/34 112/257/34
f 112/257/34 105/239/34 106/242/34
f 107/245/34 111/255/34 112/257/34
f 108/247/34 109/249/34 110/252/34
f 110/252/34 111/255/34 108/247/34
f 108/247/34 111/255/34 107/245/34
f 118/270/34 119/273/34 117/267/34
f 116/265/34 117/267/34 119/273/34
f 119/273/34 120/275/34 116/265/34
f 120/275/34 113/260/34 115/263/34
f 114/262/34 115/263/34 113/260/34
f 120/275/34 115/263/34 116/265/34
f 119/274/35 100/228/35 99/226/35
f 118/271/35 101/230/35 100/228/35
f 99/226/35 98/223/35 113/259/35
f 119/274/35 99/226/35 120/276/35
f 118/271/35 100/228/35 119/274/35
f 120/276/35 99/226/35 113/259/35
f 96/220/35 95/218/35 108/248/35
f 107/246/35 89/202/35 96/220/35
f 109/250/35 95/218/35 94/215/35
f 108/248/35 107/246/35 96/220/35
f 106/243/35 89/202/35 107/246/35
f 95/218/35 109/250/35 108/248/35
f 104/238/36 103/236/36 115/264/36
f 114/261/36 97/221/36 104/238/36
f 117/268/36 103/236/36 102/233/36
f 116/266/36 115/264/36 103/236/36
f 114/261/36 104/238/36 115/264/36
f 103/236/36 117/268/36 116/266/36
f 111/256/36 92/210/36 91/208/36
f 110/253/36 93/212/36 92/210/36
f 91/208/36 90/205/36 112/258/36
f 111/256/36 91/208/36 112/258/36
f 110/253/36 92/210/36 111/256/36
f 112/258/36 90/205/36 105/240/36
f 89/203/37 106/244/37 105/241/37
f 105/241/37 90/206/37 89/203/37
f 113/260/38 98/224/38 97/222/38
f 97/222/38 114/262/38 113/260/38
f 101/231/37 118/272/37 117/269/37
f 117/269/37 102/234/37 101/231/37
f 109/251/38 94/216/38 93/213/38
f 93/213/38 110/254/38 109/251/38
o Parede_básica_Genérico_-_200_mm_[290284]
v 7.400000 30.000000 3.000000
v 7.400000 30.000000 0.000000
v 7.400000 15.200001 0.000000
v 7.400000 15.200001 3.000000
v 7.400000 0.200000 0.000000
v 7.400000 0.200000 3.000000
v 7.400000 15.000000 3.000000
v 7.400000 15.000000 0.000000
v 7.600000 30.000000 0.000000
v 7.600000 30.000000 3.000000
v 7.600000 15.200001 3.000000
v 7.600000 15.200001 0.000000
v 7.600000 0.200000 3.000000
v 7.600000 0.200000 0.000000
v 7.600000 15.000000 0.000000
v 7.600000 15.000000 3.000000
vn -1.0000 -0.0000 -0.0000
vn 1.0000 -0.0000 -0.0000
vn -0.0000 -0.0000 -1.0000
vn -0.0000 -0.0000 1.0000
vn -0.0000 1.0000 -0.0000
vn -0.0000 -1.0000 -0.0000
vt 0.328082 -0.328084
vt 0.328085 9.842520
vt 0.328084 0.328084
vt 0.328085 0.000000
vt 48.884514 0.000000
vt 48.884514 0.328084
vt -0.328085 0.000000
vt 48.884514 9.842520
vt 48.884514 -0.328084
vt -0.328085 9.842520
vt 98.097115 0.000000
vt 98.097115 0.328084
vt -0.328086 0.000000
vt 98.097115 9.842520
vt 98.097115 -0.328084
vt -0.328086 9.842520
vt 49.540684 9.842520
vt 49.540684 -0.328084
vt 0.328085 9.842520
vt 49.540684 0.000000
vt 49.540684 0.328084
vt 0.328085 0.000000
vt 0.328084 -0.328084
vt -0.328083 0.000000
vt 0.328082 0.328084
vt -0.328083 9.842520
vt -48.884514 9.842520
vt 48.884514 0.328084
vt 0.328083 9.842520
vt -48.884514 0.000000
vt 48.884514 -0.328084
vt 0.328083 0.000000
vt -98.097115 9.842520
vt 98.097115 0.328084
vt 0.328081 9.842520
vt -98.097115 0.000000
vt 98.097115 -0.328084
vt 0.328081 0.000000
vt -49.540684 0.000000
vt 49.540684 -0.328084
vt -0.328083 0.000000
vt -49.540684 9.842520
vt 49.540684 0.328084
vt -0.328083 9.842520
s 1
f 121/278/39 122/280/39 123/281/39
f 123/281/39 124/284/39 121/278/39
f 127/293/39 128/296/39 126/290/39
f 125/287/39 126/290/39 128/296/39
f 131/303/40 132/306/40 129/300/40
f 129/300/40 130/302/40 131/303/40
f 133/309/40 134/312/40 136/318/40
f 135/315/40 136/318/40 134/312/40
f 123/282/41 122/279/41 129/299/41
f 129/299/41 132/307/41 123/282/41
f 125/288/41 128/297/41 135/316/41
f 135/316/41 134/313/41 125/288/41
f 121/277/42 124/285/42 130/301/42
f 131/304/42 130/301/42 124/285/42
f 127/294/42 126/291/42 133/310/42
f 133/310/42 136/319/42 127/294/42
f 129/300/43 122/280/43 121/278/43
f 121/278/43 130/302/43 129/300/43
f 125/289/44 134/314/44 133/311/44
f 133/311/44 126/292/44 125/289/44
f 135/317/43 128/298/43 127/295/43
f 127/295/43 136/320/43 135/317/43
f 123/283/44 132/308/44 131/305/44
f 131/305/44 124/286/44 123/283/44
o Parede_básica_Genérico_-_200_mm_[290449]
v 22.600000 30.000000 3.000000
v 22.600000 30.000000 0.000000
v 22.600000 15.200001 0.000000
v 22.600000 15.200001 3.000000
v 22.600000 0.200000 0.000000
v 22.600000 0.200000 3.000000
v 22.600000 15.000000 3.000000
v 22.600000 15.000000 0.000000
v 22.799999 30.000000 0.000000
v 22.799999 30.000000 3.000000
v 22.799999 15.200001 3.000000
v 22.799999 15.200001 0.000000
v 22.799999 0.200000 3.000000
v 22.799999 0.200000 0.000000
v 22.799999 15.000000 0.000000
v 22.799999 15.000000 3.000000
vn -1.0000 -0.0000 -0.0000
vn 1.0000 -0.0000 -0.0000
vn -0.0000 -0.0000 -1.0000
vn -0.0000 -0.0000 1.0000
vn -0.0000 1.0000 -0.0000
vn -0.0000 -1.0000 -0.0000
vt 0.328082 -0.328084
vt 0.328081 9.842520
vt 0.328084 0.328084
vt 0.328081 0.000000
vt 48.884514 0.000000
vt 48.884514 0.328084
vt -0.328081 0.000000
vt 48.884514 9.842520
vt 48.884514 -0.328084
vt -0.328081 9.842520
vt 98.097115 0.000000
vt 98.097115 0.328084
vt -0.328083 0.000000
vt 98.097115 9.842520
vt 98.097115 -0.328084
vt -0.328083 9.842520
vt 49.540684 9.842520
vt 49.540684 -0.328084
vt 0.328081 9.842520
vt 49.540684 0.000000
vt 49.540684 0.328084
vt 0.328081 0.000000
vt 0.328084 -0.328084
vt -0.328086 0.000000
vt 0.328082 0.328084
vt -0.328086 9.842520
vt -48.884514 9.842520
vt 48.884514 0.328084
vt 0.328086 9.842520
vt -48.884514 0.000000
vt 48.884514 -0.328084
vt 0.328086 0.000000
vt -98.097115 9.842520
vt 98.097115 0.328084
vt 0.328085 9.842520
vt -98.097115 0.000000
vt 98.097115 -0.328084
vt 0.328085 0.000000
vt -49.540684 0.000000
vt 49.540684 -0.328084
vt -0.328086 0.000000
vt -49.540684 9.842520
vt 49.540684 0.328084
vt -0.328086 9.842520
s 1
f 137/322/45 138/324/45 139/325/45
f 139/325/45 140/328/45 137/322/45
f 143/337/45 144/340/45 141/331/45
f 141/331/45 142/334/45 143/337/45
f 147/347/46 148/350/46 145/344/46
f 145/344/46 146/346/46 147/347/46
f 149/353/46 150/356/46 152/362/46
f 151/359/46 152/362/46 150/356/46
f 139/326/47 138/323/47 145/343/47
f 145/343/47 148/351/47 139/326/47
f 141/332/47 144/341/47 151/360/47
f 151/360/47 150/357/47 141/332/47
f 137/321/48 140/329/48 147/348/48
f 147/348/48 146/345/48 137/321/48
f 143/338/48 142/335/48 149/354/48
f 149/354/48 152/363/48 143/338/48
f 145/344/49 138/324/49 137/322/49
f 137/322/49 146/346/49 145/344/49
f 141/333/50 150/358/50 149/355/50
f 149/355/50 142/336/50 141/333/50
f 151/361/49 144/342/49 143/339/49
f 143/339/49 152/364/49 151/361/49
f 139/327/50 148/352/50 147/349/50
f 147/349/50 140/330/50 139/327/50
