# Blender 3.3.1
# www.blender.org
mtllib A8-TEL.mtl
o Forro_composto_Simples_[290488]
v 0.200000 30.000000 1.845000
v 0.200000 15.200001 1.845000
v 7.400000 15.200001 1.845000
v 7.400000 30.000000 1.845000
v 0.200000 30.000000 1.800000
v 7.400000 30.000000 1.800000
v 7.400000 15.200001 1.800000
v 0.200000 15.200001 1.800000
vn -0.0000 -0.0000 1.0000
vn -0.0000 -0.0000 -1.0000
vn -1.0000 -0.0000 -0.0000
vn -0.0000 -1.0000 -0.0000
vn 1.0000 -0.0000 -0.0000
vn -0.0000 1.0000 -0.0000
vt 0.656168 98.425201
vt 98.425194 -6.053150
vt 0.656168 -6.053150
vt 0.656168 49.868767
vt 49.868767 -6.053150
vt 0.656168 6.053150
vt 24.278215 49.868767
vt 24.278215 6.053150
vt -49.868767 -6.053150
vt 24.278215 98.425201
vt -98.425194 -6.053150
vt 24.278215 -6.053150
vt 0.656168 -98.425201
vt 98.425194 -5.905512
vt 0.656168 -5.905512
vt 24.278215 -98.425201
vt -98.425194 -5.905512
vt 24.278215 -5.905512
vt 24.278215 -49.868767
vt 24.278215 5.905512
vt -49.868767 -5.905512
vt 0.656168 -49.868767
vt 49.868767 -5.905512
vt 0.656168 5.905512
s 1
f 4/10/1 1/1/1 2/4/1
f 2/4/1 3/7/1 4/10/1
f 7/19/2 8/22/2 6/16/2
f 5/13/2 6/16/2 8/22/2
f 2/5/3 1/2/3 8/23/3
f 5/14/3 8/23/3 1/2/3
f 3/8/4 2/6/4 8/24/4
f 8/24/4 7/20/4 3/8/4
f 4/11/5 3/9/5 6/17/5
f 7/21/5 6/17/5 3/9/5
f 1/3/6 4/12/6 6/18/6
f 6/18/6 5/15/6 1/3/6
o Forro_composto_Simples_[290496]
v 7.600000 15.200001 1.845000
v 15.000000 15.200001 1.845000
v 15.000000 30.000000 1.845000
v 7.600000 30.000000 1.845000
v 7.600000 15.200001 1.800000
v 7.600000 30.000000 1.800000
v 15.000000 30.000000 1.800000
v 15.000000 15.200001 1.800000
vn -0.0000 -0.0000 1.0000
vn -0.0000 -0.0000 -1.0000
vn -0.0000 -1.0000 -0.0000
vn 1.0000 -0.0000 -0.0000
vn -0.0000 1.0000 -0.0000
vn -1.0000 -0.0000 -0.0000
vt 24.934381 49.868767
vt 24.934383 6.053150
vt 49.868767 -6.053150
vt 49.212597 49.868767
vt 49.212597 6.053150
vt -49.868767 -6.053150
vt 49.212597 98.425194
vt -98.425194 -6.053150
vt 49.212597 -6.053150
vt 24.934381 98.425194
vt 24.934383 -6.053150
vt 98.425194 -6.053150
vt 24.934381 -49.868767
vt 24.934383 5.905512
vt 49.868767 -5.905512
vt 24.934381 -98.425194
vt 24.934383 -5.905512
vt 98.425194 -5.905512
vt 49.212597 -98.425194
vt -98.425194 -5.905512
vt 49.212597 -5.905512
vt 49.212597 -49.868767
vt 49.212597 5.905512
vt -49.868767 -5.905512
s 1
f 12/34/7 9/25/7 11/31/7
f 10/28/7 11/31/7 9/25/7
f 15/43/8 16/46/8 13/37/8
f 13/37/8 14/40/8 15/43/8
f 10/29/9 9/26/9 13/38/9
f 13/38/9 16/47/9 10/29/9
f 11/32/10 10/30/10 15/44/10
f 16/48/10 15/44/10 10/30/10
f 12/35/11 11/33/11 15/45/11
f 15/45/11 14/41/11 12/35/11
f 9/27/12 12/36/12 14/42/12
f 14/42/12 13/39/12 9/27/12
o Forro_composto_Simples_[290504]
v 15.200001 15.200001 1.845000
v 22.600000 15.200001 1.845000
v 22.600000 30.000000 1.845000
v 15.200001 30.000000 1.845000
v 15.200001 15.200001 1.800000
v 15.200001 30.000000 1.800000
v 22.600000 30.000000 1.800000
v 22.600000 15.200001 1.800000
vn -0.0000 -0.0000 1.0000
vn -0.0000 -0.0000 -1.0000
vn -0.0000 -1.0000 -0.0000
vn 1.0000 -0.0000 -0.0000
vn -0.0000 1.0000 -0.0000
vn -1.0000 -0.0000 -0.0000
vt 49.868767 49.868767
vt 49.868767 6.053150
vt 49.868767 -6.053150
vt 74.146988 49.868767
vt 74.146980 6.053150
vt -49.868767 -6.053150
vt 74.146988 98.425194
vt -98.425194 -6.053150
vt 74.146980 -6.053150
vt 49.868767 98.425194
vt 49.868767 -6.053150
vt 98.425194 -6.053150
vt 49.868767 -49.868767
vt 49.868767 5.905512
vt 49.868767 -5.905512
vt 49.868767 -98.425194
vt 49.868767 -5.905512
vt 98.425194 -5.905512
vt 74.146988 -98.425194
vt -98.425194 -5.905512
vt 74.146980 -5.905512
vt 74.146988 -49.868767
vt 74.146980 5.905512
vt -49.868767 -5.905512
s 1
f 20/58/13 17/49/13 19/55/13
f 18/52/13 19/55/13 17/49/13
f 23/67/14 24/70/14 21/61/14
f 21/61/14 22/64/14 23/67/14
f 18/53/15 17/50/15 21/62/15
f 21/62/15 24/71/15 18/53/15
f 19/56/16 18/54/16 23/68/16
f 24/72/16 23/68/16 18/54/16
f 20/59/17 19/57/17 22/65/17
f 23/69/17 22/65/17 19/57/17
f 17/51/18 20/60/18 21/63/18
f 22/66/18 21/63/18 20/60/18
o Forro_composto_Simples_[290512]
v 22.799999 15.200001 1.845000
v 30.000000 15.200001 1.845000
v 30.000000 30.000000 1.845000
v 22.799999 30.000000 1.845000
v 22.799999 15.200001 1.800000
v 22.799999 30.000000 1.800000
v 30.000000 30.000000 1.800000
v 30.000000 15.200001 1.800000
vn -0.0000 -0.0000 1.0000
vn -0.0000 -0.0000 -1.0000
vn -0.0000 -1.0000 -0.0000
vn 1.0000 -0.0000 -0.0000
vn -0.0000 1.0000 -0.0000
vn -1.0000 -0.0000 -0.0000
vt 74.803154 49.868767
vt 74.803146 6.053150
vt 49.868767 -6.053150
vt 98.425201 49.868767
vt 98.425194 6.053150
vt -49.868767 -6.053150
vt 98.425201 98.425194
vt -98.425194 -6.053150
vt 98.425194 -6.053150
vt 74.803154 98.425194
vt 74.803146 -6.053150
vt 98.425194 -6.053150
vt 74.803154 -49.868767
vt 74.803146 5.905512
vt 49.868767 -5.905512
vt 74.803154 -98.425194
vt 74.803146 -5.905512
vt 98.425194 -5.905512
vt 98.425201 -98.425194
vt -98.425194 -5.905512
vt 98.425194 -5.905512
vt 98.425201 -49.868767
vt 98.425194 5.905512
vt -49.868767 -5.905512
s 1
f 28/82/19 25/73/19 27/79/19
f 26/76/19 27/79/19 25/73/19
f 31/91/20 32/94/20 29/85/20
f 29/85/20 30/88/20 31/91/20
f 26/77/21 25/74/21 29/86/21
f 29/86/21 32/95/21 26/77/21
f 27/80/22 26/78/22 31/92/22
f 32/96/22 31/92/22 26/78/22
f 28/83/23 27/81/23 31/93/23
f 31/93/23 30/89/23 28/83/23
f 25/75/24 28/84/24 29/87/24
f 30/90/24 29/87/24 28/84/24
o Forro_composto_Simples_[290520]
v 30.000000 15.000000 1.845000
v 22.799999 15.000000 1.845000
v 22.799999 0.200000 1.845000
v 30.000000 0.200000 1.845000
v 30.000000 15.000000 1.800000
v 30.000000 0.200000 1.800000
v 22.799999 0.200000 1.800000
v 22.799999 15.000000 1.800000
vn -0.0000 -0.0000 1.0000
vn -0.0000 -0.0000 -1.0000
vn -0.0000 1.0000 -0.0000
vn -1.0000 -0.0000 -0.0000
vn -0.0000 -1.0000 -0.0000
vn 1.0000 -0.0000 -0.0000
vt 98.425201 49.212597
vt 98.425194 -6.053150
vt -49.212597 -6.053150
vt 74.803154 49.212597
vt 74.803146 -6.053150
vt 49.212597 -6.053150
vt 74.803154 0.656168
vt 0.656168 -6.053150
vt 74.803146 6.053150
vt 98.425201 0.656168
vt 98.425194 6.053150
vt -0.656168 -6.053150
vt 98.425201 -49.212597
vt 98.425194 -5.905512
vt -49.212597 -5.905512
vt 98.425201 -0.656168
vt 98.425194 5.905512
vt -0.656168 -5.905512
vt 74.803154 -0.656168
vt 0.656168 -5.905512
vt 74.803146 5.905512
vt 74.803154 -49.212597
vt 74.803146 -5.905512
vt 49.212597 -5.905512
s 1
f 36/106/25 33/97/25 35/103/25
f 34/100/25 35/103/25 33/97/25
f 39/115/26 40/118/26 37/109/26
f 37/109/26 38/112/26 39/115/26
f 34/101/27 33/98/27 37/110/27
f 37/110/27 40/119/27 34/101/27
f 35/104/28 34/102/28 39/116/28
f 40/120/28 39/116/28 34/102/28
f 36/107/29 35/105/29 39/117/29
f 39/117/29 38/113/29 36/107/29
f 33/99/30 36/108/30 37/111/30
f 38/114/30 37/111/30 36/108/30
o Forro_composto_Simples_[290528]
v 22.600000 0.200000 1.845000
v 22.600000 15.000000 1.845000
v 15.200001 15.000000 1.845000
v 15.200001 0.200000 1.845000
v 22.600000 0.200000 1.800000
v 15.200001 0.200000 1.800000
v 15.200001 15.000000 1.800000
v 22.600000 15.000000 1.800000
vn -0.0000 -0.0000 1.0000
vn -0.0000 -0.0000 -1.0000
vn 1.0000 -0.0000 -0.0000
vn -0.0000 1.0000 -0.0000
vn -1.0000 -0.0000 -0.0000
vn -0.0000 -1.0000 -0.0000
vt 74.146980 0.656166
vt -0.656168 -6.053150
vt 74.146980 6.053150
vt 74.146980 49.212597
vt -49.212597 -6.053150
vt 74.146980 -6.053150
vt 49.868767 49.212597
vt 49.868767 -6.053150
vt 49.212597 -6.053150
vt 49.868767 0.656166
vt 0.656168 -6.053150
vt 49.868767 6.053150
vt 74.146980 -0.656166
vt -0.656168 -5.905512
vt 74.146980 5.905512
vt 49.868767 -0.656166
vt 0.656168 -5.905512
vt 49.868767 5.905512
vt 49.868767 -49.212597
vt 49.868767 -5.905512
vt 49.212597 -5.905512
vt 74.146980 -49.212597
vt -49.212597 -5.905512
vt 74.146980 -5.905512
s 1
f 44/130/31 41/121/31 42/124/31
f 42/124/31 43/127/31 44/130/31
f 47/139/32 48/142/32 46/136/32
f 45/133/32 46/136/32 48/142/32
f 42/125/33 41/122/33 48/143/33
f 45/134/33 48/143/33 41/122/33
f 43/128/34 42/126/34 47/140/34
f 48/144/34 47/140/34 42/126/34
f 44/131/35 43/129/35 46/137/35
f 47/141/35 46/137/35 43/129/35
f 41/123/36 44/132/36 45/135/36
f 46/138/36 45/135/36 44/132/36
o Forro_composto_Simples_[290536]
v 15.000000 0.200000 1.845000
v 15.000000 15.000000 1.845000
v 7.600000 15.000000 1.845000
v 7.600000 0.200000 1.845000
v 15.000000 0.200000 1.800000
v 7.600000 0.200000 1.800000
v 7.600000 15.000000 1.800000
v 15.000000 15.000000 1.800000
vn -0.0000 -0.0000 1.0000
vn -0.0000 -0.0000 -1.0000
vn 1.0000 -0.0000 -0.0000
vn -0.0000 1.0000 -0.0000
vn -1.0000 -0.0000 -0.0000
vn -0.0000 -1.0000 -0.0000
vt 49.212597 0.656166
vt -0.656168 -6.053150
vt 49.212597 6.053150
vt 49.212597 49.212597
vt -49.212597 -6.053150
vt 49.212597 -6.053150
vt 24.934383 49.212597
vt 24.934383 -6.053150
vt 49.212597 -6.053150
vt 24.934383 0.656166
vt 0.656168 -6.053150
vt 24.934383 6.053150
vt 49.212597 -0.656166
vt -0.656168 -5.905512
vt 49.212597 5.905512
vt 24.934383 -0.656166
vt 0.656168 -5.905512
vt 24.934383 5.905512
vt 24.934383 -49.212597
vt 24.934383 -5.905512
vt 49.212597 -5.905512
vt 49.212597 -49.212597
vt -49.212597 -5.905512
vt 49.212597 -5.905512
s 1
f 52/154/37 49/145/37 50/148/37
f 50/148/37 51/151/37 52/154/37
f 55/163/38 56/166/38 54/160/38
f 53/157/38 54/160/38 56/166/38
f 50/149/39 49/146/39 56/167/39
f 53/158/39 56/167/39 49/146/39
f 51/152/40 50/150/40 56/168/40
f 56/168/40 55/164/40 51/152/40
f 52/155/41 51/153/41 54/161/41
f 55/165/41 54/161/41 51/153/41
f 49/147/42 52/156/42 54/162/42
f 54/162/42 53/159/42 49/147/42
o Forro_composto_Simples_[290544]
v 7.400000 0.200000 1.845000
v 7.400000 15.000000 1.845000
v 0.200000 15.000000 1.845000
v 0.200000 0.200000 1.845000
v 7.400000 0.200000 1.800000
v 0.200000 0.200000 1.800000
v 0.200000 15.000000 1.800000
v 7.400000 15.000000 1.800000
vn -0.0000 -0.0000 1.0000
vn -0.0000 -0.0000 -1.0000
vn 1.0000 -0.0000 -0.0000
vn -0.0000 1.0000 -0.0000
vn -1.0000 -0.0000 -0.0000
vn -0.0000 -1.0000 -0.0000
vt 24.278215 0.656166
vt -0.656168 -6.053150
vt 24.278215 6.053150
vt 24.278215 49.212597
vt -49.212597 -6.053150
vt 24.278215 -6.053150
vt 0.656168 49.212597
vt 0.656168 -6.053150
vt 49.212597 -6.053150
vt 0.656168 0.656166
vt 0.656168 -6.053150
vt 0.656168 6.053150
vt 24.278215 -0.656166
vt -0.656168 -5.905512
vt 24.278215 5.905512
vt 0.656168 -0.656166
vt 0.656168 -5.905512
vt 0.656168 5.905512
vt 0.656168 -49.212597
vt 0.656168 -5.905512
vt 49.212597 -5.905512
vt 24.278215 -49.212597
vt -49.212597 -5.905512
vt 24.278215 -5.905512
s 1
f 60/178/43 57/169/43 58/172/43
f 58/172/43 59/175/43 60/178/43
f 63/187/44 64/190/44 62/184/44
f 61/181/44 62/184/44 64/190/44
f 58/173/45 57/170/45 64/191/45
f 61/182/45 64/191/45 57/170/45
f 59/176/46 58/174/46 64/192/46
f 64/192/46 63/188/46 59/176/46
f 60/179/47 59/177/47 62/185/47
f 63/189/47 62/185/47 59/177/47
f 57/171/48 60/180/48 61/183/48
f 62/186/48 61/183/48 60/180/48
